HIERARCHY
ROOT hip
{
  OFFSET 0 0 0
  CHANNELS 6 Xposition Yposition Zposition Zrotation Yrotation Xrotation
  JOINT abdomen
  {
    OFFSET 0 20.6881 -0.73152
    CHANNELS 3 Zrotation Xrotation Yrotation
    JOINT chest
    {
      OFFSET 0 11.7043 -0.48768
      CHANNELS 3 Zrotation Xrotation Yrotation
      JOINT neck
      {
        OFFSET 0 22.1894 -2.19456
        CHANNELS 3 Zrotation Xrotation Yrotation
        JOINT head
        {
          OFFSET -0.24384 7.07133 1.2192
          CHANNELS 3 Zrotation Xrotation Yrotation
          JOINT leftEye
          {
            OFFSET 4.14528 8.04674 8.04672
            CHANNELS 3 Zrotation Xrotation Yrotation
            End Site
            {
              OFFSET 1 0 0
            }
          }
          JOINT rightEye
          {
            OFFSET -3.6576 8.04674 8.04672
            CHANNELS 3 Zrotation Xrotation Yrotation
            End Site
            {
              OFFSET 1 0 0
            }
          }
        }
      }
      JOINT rCollar
      {
        OFFSET -2.68224 19.2634 -4.8768
        CHANNELS 3 Zrotation Xrotation Yrotation
        JOINT rShldr
        {
          OFFSET -8.77824 -1.95073 1.46304
          CHANNELS 3 Zrotation Xrotation Yrotation
          JOINT rForeArm
          {
            OFFSET -28.1742 -1.7115 0.48768
            CHANNELS 3 Zrotation Xrotation Yrotation
            JOINT rHand
            {
              OFFSET -22.5879 0.773209 7.07136
              CHANNELS 3 Zrotation Xrotation Yrotation
              JOINT rThumb1
              {
                OFFSET -1.2192 -0.487915 3.41376
                CHANNELS 3 Zrotation Xrotation Yrotation
                JOINT rThumb2
                {
                  OFFSET -3.37035 -0.52449 3.41376
                  CHANNELS 3 Zrotation Xrotation Yrotation
                  End Site
                  {
                    OFFSET -1.78271 -1.18214 1.43049
                  }
                }
              }
              JOINT rIndex1
              {
                OFFSET -7.75947 0.938293 5.60832
                CHANNELS 3 Zrotation Xrotation Yrotation
                JOINT rIndex2
                {
                  OFFSET -2.54057 -0.884171 1.56538
                  CHANNELS 3 Zrotation Xrotation Yrotation
                  End Site
                  {
                    OFFSET -1.62519 -0.234802 1.16502
                  }
                }
              }
              JOINT rMid1
              {
                OFFSET -8.24714 1.18213 3.41376
                CHANNELS 3 Zrotation Xrotation Yrotation
                JOINT rMid2
                {
                  OFFSET -3.10165 -0.590103 1.0647
                  CHANNELS 3 Zrotation Xrotation Yrotation
                  End Site
                  {
                    OFFSET -2.48547 -0.328903 0.83742
                  }
                }
              }
              JOINT rRing1
              {
                OFFSET -8.82822 0.546677 1.51678
                CHANNELS 3 Zrotation Xrotation Yrotation
                JOINT rRing2
                {
                  OFFSET -2.60934 -0.819778 -0.0198488
                  CHANNELS 3 Zrotation Xrotation Yrotation
                  End Site
                  {
                    OFFSET -2.33842 -0.294052 0.168128
                  }
                }
              }
              JOINT rPinky1
              {
                OFFSET -8.27202 -0.0477905 -0.4584
                CHANNELS 3 Zrotation Xrotation Yrotation
                JOINT rPinky2
                {
                  OFFSET -1.82734 -0.647385 -0.700984
                  CHANNELS 3 Zrotation Xrotation Yrotation
                  End Site
                  {
                    OFFSET -1.69225 -0.51767 -0.607171
                  }
                }
              }
            }
          }
        }
      }
      JOINT lCollar
      {
        OFFSET 2.68224 19.2634 -4.8768
        CHANNELS 3 Zrotation Xrotation Yrotation
        JOINT lShldr
        {
          OFFSET 8.77824 -1.95073 1.46304
          CHANNELS 3 Zrotation Xrotation Yrotation
          JOINT lForeArm
          {
            OFFSET 28.1742 -1.7115 0.48768
            CHANNELS 3 Zrotation Xrotation Yrotation
            JOINT lHand
            {
              OFFSET 22.5879 0.773209 7.07136
              CHANNELS 3 Zrotation Xrotation Yrotation
              JOINT lThumb1
              {
                OFFSET 1.2192 -0.487915 3.41376
                CHANNELS 3 Zrotation Xrotation Yrotation
                JOINT lThumb2
                {
                  OFFSET 3.37035 -0.52449 3.41376
                  CHANNELS 3 Zrotation Xrotation Yrotation
                  End Site
                  {
                    OFFSET 1.78271 -1.18214 1.43049
                  }
                }
              }
              JOINT lIndex1
              {
                OFFSET 7.75947 0.938293 5.60832
                CHANNELS 3 Zrotation Xrotation Yrotation
                JOINT lIndex2
                {
                  OFFSET 2.54057 -0.884171 1.56538
                  CHANNELS 3 Zrotation Xrotation Yrotation
                  End Site
                  {
                    OFFSET 1.62519 -0.234802 1.16502
                  }
                }
              }
              JOINT lMid1
              {
                OFFSET 8.24714 1.18213 3.41376
                CHANNELS 3 Zrotation Xrotation Yrotation
                JOINT lMid2
                {
                  OFFSET 3.10165 -0.590103 1.0647
                  CHANNELS 3 Zrotation Xrotation Yrotation
                  End Site
                  {
                    OFFSET 2.48547 -0.328903 0.83742
                  }
                }
              }
              JOINT lRing1
              {
                OFFSET 8.82822 0.546677 1.51678
                CHANNELS 3 Zrotation Xrotation Yrotation
                JOINT lRing2
                {
                  OFFSET 2.60934 -0.819778 -0.0198488
                  CHANNELS 3 Zrotation Xrotation Yrotation
                  End Site
                  {
                    OFFSET 2.33842 -0.294052 0.168128
                  }
                }
              }
              JOINT lPinky1
              {
                OFFSET 8.27202 -0.0477905 -0.4584
                CHANNELS 3 Zrotation Xrotation Yrotation
                JOINT lPinky2
                {
                  OFFSET 1.82734 -0.647385 -0.700984
                  CHANNELS 3 Zrotation Xrotation Yrotation
                  End Site
                  {
                    OFFSET 1.69225 -0.51767 -0.607171
                  }
                }
              }
            }
          }
        }
      }
    }
  }
  JOINT rButtock
  {
    OFFSET -8.77824 4.35084 1.2192
    CHANNELS 3 Zrotation Xrotation Yrotation
    JOINT rThigh
    {
      OFFSET 0 -1.70687 -2.19456
      CHANNELS 3 Zrotation Xrotation Yrotation
      JOINT rShin
      {
        OFFSET 0 -36.8199 0.73152
        CHANNELS 3 Zrotation Xrotation Yrotation
        JOINT rFoot
        {
          OFFSET 0.73152 -45.1104 -5.12064
          CHANNELS 3 Zrotation Xrotation Yrotation
          End Site
          {
            OFFSET -1.1221 -3.69964 12.103
          }
        }
      }
    }
  }
  JOINT lButtock
  {
    OFFSET 8.77824 4.35084 1.2192
    CHANNELS 3 Zrotation Xrotation Yrotation
    JOINT lThigh
    {
      OFFSET 0 -1.70687 -2.19456
      CHANNELS 3 Zrotation Xrotation Yrotation
      JOINT lShin
      {
        OFFSET 0 -36.8199 0.73152
        CHANNELS 3 Zrotation Xrotation Yrotation
        JOINT lFoot
        {
          OFFSET -0.73152 -45.1104 -5.12064
          CHANNELS 3 Zrotation Xrotation Yrotation
          End Site
          {
            OFFSET 1.1221 -3.69964 12.103
          }
        }
      }
    }
  }
}
MOTION
Frames:	5
Frame Time:	0.00833333
-1.94427 113.112 20.5621 -162.702 80.6259 -145.396 19.7642 15.9668 4.38188 0.783728 -17.3591 1.81369 -1.52151 1.12099 -6.52979 -1.08566 34.5851 -7.26013 -0.0 0.0 0.0 -0.0 0.0 0.0 1.68465e-13 -4.64204e-13 2.50916e-13 46.2224 22.7581 -9.79576 -22.0819 -15.8831 44.0018 -0.293342 -15.2256 -2.19226 7.06076e-10 1.50206e-09 -1.6278e-09 1.2479e-09 2.59658e-09 -2.79603e-09 7.06081e-10 1.50206e-09 -1.6278e-09 7.73091 5.47488 0.417314 7.06078e-10 1.50206e-09 -1.6278e-09 2.90554 0.965183 0.102902 7.06082e-10 1.50206e-09 -1.62779e-09 10.2786 0.731801 0.0259123 7.06072e-10 1.50206e-09 -1.62779e-09 2.22167 -0.733487 -0.20892 1.68316e-13 -4.64196e-13 2.50587e-13 -67.3863 16.7903 25.0114 17.5225 -10.1637 -33.025 0.1351 10.4132 -1.48002 -2.17577e-09 6.23768e-09 3.42708e-10 -3.75895e-09 1.08418e-08 6.16749e-10 -2.17577e-09 6.23768e-09 3.42719e-10 -7.73091 5.47488 -0.417314 -2.17577e-09 6.23768e-09 3.42717e-10 -2.90554 0.965183 -0.102902 -2.17577e-09 6.23767e-09 3.42704e-10 -10.2786 0.731801 -0.0259123 -2.17576e-09 6.23768e-09 3.42696e-10 -2.22167 -0.733487 0.20892 -2.03217e-16 0.0 -3.88251e-19 14.6756 -39.2927 -11.7758 0.208878 32.088 1.14136 -2.76219 -14.4181 -8.65748 2.03217e-16 0.0 3.88251e-19 5.78383 -66.2453 5.67142 1.11903 64.3011 -2.72898 -2.74813 -11.9036 -4.0373
-1.48811 113.822 20.4163 -164.573 80.7867 -147.675 19.3453 15.7695 4.57292 0.364288 -17.2774 1.81162 -1.73932 1.54919 -6.80821 -0.30891 34.8114 -7.85564 -0.0 0.0 0.0 -0.0 0.0 0.0 9.82427e-14 -8.61529e-13 2.86463e-13 46.7944 22.4825 -9.70603 -22.2954 -16.2085 44.5912 -0.304909 -15.5211 -2.23688 1.20886e-09 2.41877e-09 -2.40433e-09 2.12819e-09 4.18603e-09 -4.13561e-09 1.20887e-09 2.41877e-09 -2.40434e-09 7.73091 5.47488 0.417314 1.20887e-09 2.41877e-09 -2.40434e-09 2.90554 0.965183 0.102902 1.20887e-09 2.41877e-09 -2.40433e-09 10.2786 0.731801 0.0259123 1.20886e-09 2.41877e-09 -2.40432e-09 2.22167 -0.733487 -0.20892 9.81067e-14 -8.61527e-13 2.86114e-13 -66.1307 15.7993 25.9655 17.0379 -9.68567 -31.9096 0.13329 10.3424 -1.46974 -1.91142e-09 5.9291e-09 1.04694e-10 -3.30515e-09 1.03093e-08 2.00532e-10 -1.91142e-09 5.92911e-09 1.04705e-10 -7.73091 5.47488 -0.417314 -1.91142e-09 5.9291e-09 1.04702e-10 -2.90554 0.965183 -0.102902 -1.91142e-09 5.9291e-09 1.04687e-10 -10.2786 0.731801 -0.0259123 -1.91141e-09 5.9291e-09 1.04679e-10 -2.22167 -0.733487 0.20892 -2.03217e-16 0.0 -3.88251e-19 14.2692 -37.6744 -10.9576 0.218036 30.3262 1.14183 -2.92619 -13.8318 -9.87383 2.03217e-16 0.0 3.88251e-19 3.75803 -65.5461 4.99019 0.845625 60.2029 -2.46515 -1.99057 -11.0449 -1.46851
-1.0285 114.463 20.3183 -165.675 80.9688 -149.177 18.9236 15.5004 4.70421 0.0581963 -17.141 1.80901 -1.8676 1.94261 -7.02696 0.254044 35.0577 -8.29898 -0.0 0.0 0.0 -0.0 0.0 0.0 2.55253e-14 -1.06032e-12 2.68906e-13 47.379 22.423 -9.62616 -22.4978 -16.5233 45.1568 -0.312106 -15.6981 -2.26373 1.24223e-09 2.41906e-09 -2.2374e-09 2.18331e-09 4.18799e-09 -3.84969e-09 1.24223e-09 2.41906e-09 -2.23741e-09 7.73091 5.47488 0.417314 1.24223e-09 2.41906e-09 -2.2374e-09 2.90554 0.965183 0.102902 1.24223e-09 2.41906e-09 -2.2374e-09 10.2786 0.731801 0.0259123 1.24222e-09 2.41906e-09 -2.23739e-09 2.22167 -0.733487 -0.20892 2.54149e-14 -1.06032e-12 2.68558e-13 -64.9796 14.8372 26.8981 16.5891 -9.24626 -30.9263 0.135255 10.428 -1.48212 -1.38146e-09 4.73011e-09 9.1918e-12 -2.39049e-09 8.22248e-09 2.84063e-11 -1.38147e-09 4.73012e-09 9.20453e-12 -7.73091 5.47488 -0.417314 -1.38146e-09 4.73011e-09 9.19816e-12 -2.90554 0.965183 -0.102902 -1.38146e-09 4.73011e-09 9.18544e-12 -10.2786 0.731801 -0.0259123 -1.38146e-09 4.73011e-09 9.1759e-12 -2.22167 -0.733487 0.20892 -2.03217e-16 0.0 -3.88251e-19 14.0867 -36.1817 -9.97507 0.221203 28.8086 1.12919 -3.06799 -13.5968 -10.8862 2.03217e-16 0.0 3.88251e-19 2.21728 -64.4902 4.71636 0.621985 55.8967 -2.23179 -1.36237 -10.5412 0.971658
-0.558279 115.029 20.2728 -166.015 81.1496 -149.925 18.5051 15.1329 4.76424 -0.10896 -16.9244 1.80657 -1.85905 2.28808 -7.17017 0.498171 35.3459 -8.53807 -0.0 0.0 0.0 -0.0 0.0 0.0 -6.11785e-14 -9.53919e-13 1.59541e-13 47.9944 22.6146 -9.51514 -22.6845 -16.8204 45.6829 -0.31486 -15.7566 -2.2727 4.17461e-10 7.75006e-10 -3.48344e-10 7.30087e-10 1.3418e-09 -5.97044e-10 4.17467e-10 7.75006e-10 -3.48356e-10 7.73091 5.47488 0.417314 4.17463e-10 7.75004e-10 -3.48347e-10 2.90554 0.965183 0.102902 4.17469e-10 7.75004e-10 -3.48342e-10 10.2786 0.731801 0.0259123 4.17456e-10 7.75005e-10 -3.48332e-10 2.22167 -0.733487 -0.20892 -6.12338e-14 -9.53917e-13 1.59227e-13 -63.9403 13.8584 27.8176 16.1771 -8.84556 -30.0672 0.143838 10.7718 -1.53202 -3.3568e-10 1.95439e-09 2.03771e-10 -5.80859e-10 3.38274e-09 3.53102e-10 -3.3568e-10 1.95441e-09 2.03785e-10 -7.73091 5.47488 -0.417314 -3.35677e-10 1.9544e-09 2.03774e-10 -2.90554 0.965183 -0.102902 -3.35677e-10 1.9544e-09 2.03768e-10 -10.2786 0.731801 -0.0259123 -3.35674e-10 1.9544e-09 2.03756e-10 -2.22167 -0.733487 0.20892 -2.03217e-16 0.0 -3.88251e-19 14.1836 -34.8254 -8.77409 0.21459 27.5397 1.09853 -3.20594 -13.8394 -11.6177 2.03217e-16 0.0 3.88251e-19 1.24591 -62.9659 4.97329 0.440396 51.1484 -2.01324 -0.79508 -10.3764 3.41312
-0.069008 115.506 20.2119 -166.771 81.4055 -151.012 18.0638 14.6824 4.75786 -0.188611 -16.6485 1.79791 -1.75944 2.59507 -7.25407 0.542532 35.673 -8.62903 -0.0 0.0 0.0 -0.0 0.0 0.0 -1.68373e-13 -6.73535e-13 -1.43839e-14 48.655 22.9997 -9.38898 -22.8659 -17.1147 46.2016 -0.313058 -15.7058 -2.26506 -9.82541e-10 -1.96843e-09 2.70452e-09 -1.73446e-09 -3.4084e-09 4.66024e-09 -9.82535e-10 -1.96843e-09 2.70451e-09 7.73091 5.47488 0.417314 -9.82541e-10 -1.96843e-09 2.70452e-09 2.90554 0.965183 0.102902 -9.82535e-10 -1.96843e-09 2.70452e-09 10.2786 0.731801 0.0259123 -9.82545e-10 -1.96843e-09 2.70453e-09 2.22167 -0.733487 -0.20892 -1.68351e-13 -6.73528e-13 -1.46417e-14 -62.9525 12.8888 28.7105 15.8399 -8.53403 -29.3504 0.157939 11.2891 -1.60745 1.14212e-09 -2.04383e-09 6.03236e-10 1.97781e-09 -3.59059e-09 1.02784e-09 1.14212e-09 -2.04381e-09 6.03251e-10 -7.73091 5.47488 -0.417314 1.14212e-09 -2.04382e-09 6.03235e-10 -2.90554 0.965183 -0.102902 1.14212e-09 -2.04382e-09 6.03238e-10 -10.2786 0.731801 -0.0259123 1.14212e-09 -2.04382e-09 6.03224e-10 -2.22167 -0.733487 0.20892 -2.03217e-16 0.0 -3.88251e-19 14.4711 -33.5827 -7.32314 0.194571 26.4534 1.05156 -3.36076 -14.4157 -12.2065 2.03217e-16 0.0 3.88251e-19 0.568526 -61.0474 5.56449 0.308147 45.9895 -1.82017 -0.201133 -10.4201 6.05558
